<svg width="355" height="355" viewBox="0 0 355 355" fill="none" xmlns="http://www.w3.org/2000/svg">
<circle cx="177.5" cy="177.5" r="176.5" stroke="#99958F" stroke-width="2" stroke-dasharray="40 40"/>
<circle cx="177.5" cy="177.5" r="143.5" fill="#FFF9EE" stroke="#99958F" stroke-width="2" stroke-dasharray="10 10"/>
<path d="M232.57 249.742L225.551 228.68C223.098 221.327 216.839 215.899 209.21 214.51L188.945 210.823V209.252C192.472 207.205 195.541 204.467 197.985 201.226H204.107C209.122 201.226 213.203 197.144 213.203 192.129V155.742C213.203 134.007 195.519 116.323 173.784 116.323C152.049 116.323 134.365 134.007 134.365 155.742V176.968C134.365 182.814 138.522 187.705 144.035 188.845C145.736 197.56 151.182 204.934 158.623 209.252V210.823L138.355 214.51C130.729 215.899 124.467 221.327 122.017 228.68L120.804 232.322L110.477 221.994C109.294 220.811 109.294 218.886 110.477 217.703L122.454 205.729L99.9728 183.247L86.4368 196.783C82.4282 200.792 80.2207 206.123 80.2207 211.793C80.2207 217.463 82.4282 222.791 86.4368 226.8L127.418 267.781C131.426 271.789 136.757 274 142.427 274C148.098 274 153.425 271.789 157.34 267.872L172.11 254.339L167.504 249.742H232.57ZM207.139 192.129C207.139 193.803 205.777 195.161 204.107 195.161H201.557C202.436 193.157 203.103 191.043 203.534 188.845C204.831 188.575 206.026 188.06 207.139 187.411V192.129ZM204.107 182.189V171.746C205.911 172.798 207.139 174.733 207.139 176.968C207.139 179.202 205.911 181.137 204.107 182.189ZM143.461 182.189C141.657 181.137 140.429 179.202 140.429 176.968C140.429 174.733 141.657 172.798 143.461 171.746V182.189ZM143.461 161.806V165.269C142.382 165.551 141.369 165.976 140.429 166.525V155.742C140.429 137.351 155.393 122.387 173.784 122.387C192.175 122.387 207.139 137.351 207.139 155.742V166.525C206.199 165.976 205.186 165.548 204.107 165.269V161.806H201.074C192.108 161.806 183.678 158.313 177.335 151.973L173.784 148.422L170.233 151.973C163.89 158.313 155.46 161.806 146.494 161.806H143.461ZM149.526 183.032V167.756C158.632 167.07 167.122 163.313 173.784 156.979C180.446 163.313 188.936 167.073 198.042 167.756V183.032C198.042 187.453 196.835 191.589 194.761 195.161H173.784V201.226H189.776C185.501 204.989 179.912 207.29 173.784 207.29C160.409 207.29 149.526 196.407 149.526 183.032ZM182.881 211.957V212.099L173.784 221.196L164.687 212.099V211.957C167.562 212.861 170.615 213.355 173.784 213.355C176.953 213.355 180.006 212.861 182.881 211.957ZM127.767 230.596C129.516 225.344 133.989 221.466 139.438 220.471L160.633 216.621L173.784 229.771L186.932 216.624L208.124 220.475C213.573 221.469 218.046 225.344 219.796 230.599L224.159 243.677H161.44L149.629 231.867L136.505 243.738C135.362 244.887 133.364 244.887 132.218 243.738L125.595 237.116L127.767 230.596ZM99.9698 191.823L113.876 205.729L110.583 209.022L96.6768 195.116L99.9698 191.823ZM153.14 263.499C150.278 266.356 146.469 267.935 142.421 267.935C138.373 267.935 134.565 266.356 131.699 263.493L90.7184 222.515C87.8559 219.653 86.2792 215.844 86.2792 211.796C86.2792 207.745 87.8559 203.937 90.7184 201.074L92.3861 199.406L106.292 213.312L106.183 213.421C102.638 216.969 102.638 222.74 106.183 226.287L127.927 248.032C129.647 249.748 131.93 250.697 134.362 250.697C136.794 250.697 139.077 249.751 140.684 248.138L140.911 247.935L154.881 261.904L153.14 263.499ZM159.357 257.799L145.417 243.859L149.423 240.239L163.338 254.154L159.357 257.799Z" fill="#99958F"/>
<path d="M258.687 86H216.235C211.22 86 207.139 90.0814 207.139 95.0968V119.355C207.139 124.37 211.22 128.452 216.235 128.452H224.335L221.199 146.739L250.461 128.452H258.687C263.702 128.452 267.784 124.37 267.784 119.355V95.0968C267.784 90.0814 263.702 86 258.687 86ZM261.719 119.355C261.719 121.026 260.358 122.387 258.687 122.387H248.72L229.462 134.422L231.527 122.387H216.235C214.565 122.387 213.203 121.026 213.203 119.355V95.0968C213.203 93.426 214.565 92.0645 216.235 92.0645H258.687C260.358 92.0645 261.719 93.426 261.719 95.0968V119.355Z" fill="#99958F"/>
<path d="M255.655 98.1292H219.268V104.194H255.655V98.1292Z" fill="#99958F"/>
<path d="M243.526 110.258H219.268V116.323H243.526V110.258Z" fill="#99958F"/>
<path d="M255.654 110.258H249.59V116.323H255.654V110.258Z" fill="#99958F"/>
<path d="M173.783 95.0967C134.164 95.0967 100.036 122.502 91.1632 160.73L85.4171 151.151L80.2168 154.271L90.8752 172.031L108.635 161.373L105.515 156.172L97.2975 161.103C105.891 126.132 137.338 101.161 173.783 101.161C181.749 101.161 189.609 102.344 197.144 104.679L198.939 98.887C190.821 96.3702 182.358 95.0967 173.783 95.0967Z" fill="#99958F"/>
<path d="M266.309 153.14L248.549 142.482L237.893 160.245L243.094 163.365L248.4 154.52C251.193 162.692 252.621 171.24 252.621 180C252.621 198.033 246.375 215.662 235.037 229.638L239.746 233.459C251.96 218.407 258.686 199.419 258.686 180C258.686 170.724 257.191 161.667 254.277 152.995L263.189 158.341L266.309 153.14Z" fill="#99958F"/>
</svg>
